<svg width="300" height="300" viewBox="0 0 300 300" fill="none" xmlns="http://www.w3.org/2000/svg">
<rect x="100.5" y="100.5" width="199" height="199" rx="39.5" fill="url(#paint0_linear_16_64)" stroke="url(#paint1_linear_16_64)"/>
<rect x="0.5" y="240.5" width="59" height="59" rx="19.5" fill="url(#paint2_linear_16_64)" stroke="url(#paint3_linear_16_64)"/>
<g filter="url(#filter0_d_16_64)">
<path d="M184.309 239.84C182.069 239.92 180.309 239.32 179.029 238.04C177.749 236.76 177.109 235.12 177.109 233.12C177.109 231.6 177.589 230.28 178.549 229.16C179.429 227.96 180.749 227.32 182.509 227.24L186.109 227C189.629 226.76 192.269 225.68 194.029 223.76C195.869 221.76 196.789 218.92 196.789 215.24V161.24C196.789 158.68 197.429 156.76 198.709 155.48C200.069 154.12 201.989 153.44 204.469 153.44C206.949 153.44 208.829 154.12 210.109 155.48C211.469 156.76 212.149 158.68 212.149 161.24V215.12C212.149 220.16 211.229 224.44 209.389 227.96C207.629 231.48 204.989 234.24 201.469 236.24C197.949 238.16 193.589 239.28 188.389 239.6L184.309 239.84Z" fill="url(#paint4_linear_16_64)" shape-rendering="crispEdges"/>
</g>
<g filter="url(#filter1_b_16_64)">
<rect width="200" height="200" rx="40" fill="url(#paint5_linear_16_64)"/>
<rect x="0.5" y="0.5" width="199" height="199" rx="39.5" stroke="url(#paint6_linear_16_64)"/>
</g>
<g filter="url(#filter2_b_16_64)">
<rect x="240" width="60" height="60" rx="20" fill="url(#paint7_linear_16_64)"/>
<rect x="240.5" y="0.5" width="59" height="59" rx="19.5" stroke="url(#paint8_linear_16_64)"/>
</g>
<g filter="url(#filter3_d_16_64)">
<path d="M100.054 139.96C97.5744 139.96 95.6544 139.28 94.2944 137.92C93.0144 136.48 92.3744 134.52 92.3744 132.04V67.24H68.9744C66.8944 67.24 65.2544 66.68 64.0544 65.56C62.9344 64.36 62.3744 62.76 62.3744 60.76C62.3744 58.68 62.9344 57.12 64.0544 56.08C65.2544 54.96 66.8944 54.4 68.9744 54.4H131.134C133.214 54.4 134.814 54.96 135.934 56.08C137.134 57.12 137.734 58.68 137.734 60.76C137.734 62.76 137.134 64.36 135.934 65.56C134.814 66.68 133.214 67.24 131.134 67.24H107.734V132.04C107.734 134.52 107.094 136.48 105.814 137.92C104.534 139.28 102.614 139.96 100.054 139.96Z" fill="url(#paint9_linear_16_64)" shape-rendering="crispEdges"/>
</g>
<defs>
<filter id="filter0_d_16_64" x="173.109" y="153.44" width="43.04" height="94.52" filterUnits="userSpaceOnUse" color-interpolation-filters="sRGB">
<feFlood flood-opacity="0" result="BackgroundImageFix"/>
<feColorMatrix in="SourceAlpha" type="matrix" values="0 0 0 0 0 0 0 0 0 0 0 0 0 0 0 0 0 0 127 0" result="hardAlpha"/>
<feOffset dy="4"/>
<feGaussianBlur stdDeviation="2"/>
<feComposite in2="hardAlpha" operator="out"/>
<feColorMatrix type="matrix" values="0 0 0 0 0 0 0 0 0 0 0 0 0 0 0 0 0 0 0.25 0"/>
<feBlend mode="normal" in2="BackgroundImageFix" result="effect1_dropShadow_16_64"/>
<feBlend mode="normal" in="SourceGraphic" in2="effect1_dropShadow_16_64" result="shape"/>
</filter>
<filter id="filter1_b_16_64" x="-15" y="-15" width="230" height="230" filterUnits="userSpaceOnUse" color-interpolation-filters="sRGB">
<feFlood flood-opacity="0" result="BackgroundImageFix"/>
<feGaussianBlur in="BackgroundImageFix" stdDeviation="7.5"/>
<feComposite in2="SourceAlpha" operator="in" result="effect1_backgroundBlur_16_64"/>
<feBlend mode="normal" in="SourceGraphic" in2="effect1_backgroundBlur_16_64" result="shape"/>
</filter>
<filter id="filter2_b_16_64" x="220" y="-20" width="100" height="100" filterUnits="userSpaceOnUse" color-interpolation-filters="sRGB">
<feFlood flood-opacity="0" result="BackgroundImageFix"/>
<feGaussianBlur in="BackgroundImageFix" stdDeviation="10"/>
<feComposite in2="SourceAlpha" operator="in" result="effect1_backgroundBlur_16_64"/>
<feBlend mode="normal" in="SourceGraphic" in2="effect1_backgroundBlur_16_64" result="shape"/>
</filter>
<filter id="filter3_d_16_64" x="47.3744" y="43.4" width="105.36" height="115.56" filterUnits="userSpaceOnUse" color-interpolation-filters="sRGB">
<feFlood flood-opacity="0" result="BackgroundImageFix"/>
<feColorMatrix in="SourceAlpha" type="matrix" values="0 0 0 0 0 0 0 0 0 0 0 0 0 0 0 0 0 0 127 0" result="hardAlpha"/>
<feOffset dy="4"/>
<feGaussianBlur stdDeviation="7.5"/>
<feComposite in2="hardAlpha" operator="out"/>
<feColorMatrix type="matrix" values="0 0 0 0 0 0 0 0 0 0 0 0 0 0 0 0 0 0 0.25 0"/>
<feBlend mode="normal" in2="BackgroundImageFix" result="effect1_dropShadow_16_64"/>
<feBlend mode="normal" in="SourceGraphic" in2="effect1_dropShadow_16_64" result="shape"/>
</filter>
<linearGradient id="paint0_linear_16_64" x1="300" y1="300" x2="100" y2="100" gradientUnits="userSpaceOnUse">
<stop stop-color="#026400"/>
<stop offset="1" stop-color="#00D015" stop-opacity="0.75"/>
</linearGradient>
<linearGradient id="paint1_linear_16_64" x1="87.5" y1="100" x2="300" y2="300" gradientUnits="userSpaceOnUse">
<stop stop-color="#75FF69"/>
<stop offset="1" stop-color="#9AFF8A" stop-opacity="0.5"/>
</linearGradient>
<linearGradient id="paint2_linear_16_64" x1="60" y1="300" x2="0" y2="240" gradientUnits="userSpaceOnUse">
<stop stop-color="#358338"/>
<stop offset="1" stop-color="#14FF00" stop-opacity="0.75"/>
</linearGradient>
<linearGradient id="paint3_linear_16_64" x1="-3.75" y1="240" x2="60" y2="300" gradientUnits="userSpaceOnUse">
<stop stop-color="#9A9A9A"/>
<stop offset="1" stop-color="white" stop-opacity="0.5"/>
</linearGradient>
<linearGradient id="paint4_linear_16_64" x1="159.5" y1="141.899" x2="510.713" y2="424.311" gradientUnits="userSpaceOnUse">
<stop stop-color="white"/>
<stop offset="1" stop-color="#05FF00" stop-opacity="0"/>
</linearGradient>
<linearGradient id="paint5_linear_16_64" x1="0" y1="0" x2="200" y2="200" gradientUnits="userSpaceOnUse">
<stop stop-color="#ABFFB3" stop-opacity="0.5"/>
<stop offset="1" stop-color="#007D0D" stop-opacity="0.1"/>
</linearGradient>
<linearGradient id="paint6_linear_16_64" x1="-35.5" y1="-71" x2="200" y2="200" gradientUnits="userSpaceOnUse">
<stop stop-color="white"/>
<stop offset="1" stop-color="#484848" stop-opacity="0.5"/>
</linearGradient>
<linearGradient id="paint7_linear_16_64" x1="236" y1="-9" x2="318.5" y2="86.5" gradientUnits="userSpaceOnUse">
<stop stop-color="white" stop-opacity="0"/>
<stop offset="1" stop-color="#05FF00" stop-opacity="0.75"/>
</linearGradient>
<linearGradient id="paint8_linear_16_64" x1="229.35" y1="-21.3" x2="311.55" y2="70.35" gradientUnits="userSpaceOnUse">
<stop stop-color="#19DF39"/>
<stop offset="1" stop-color="#A6FFA5" stop-opacity="0.5"/>
</linearGradient>
<linearGradient id="paint9_linear_16_64" x1="34" y1="29.5" x2="141.781" y2="136.088" gradientUnits="userSpaceOnUse">
<stop stop-color="#00FF0A"/>
<stop offset="1" stop-color="#229B1F" stop-opacity="0.75"/>
</linearGradient>
</defs>
</svg>
